<svg id="Layer_1" data-name="Layer 1" xmlns="http://www.w3.org/2000/svg" viewBox="0 0 640 371"><defs><style>.cls-1,.cls-32{fill:none;stroke-linecap:round;stroke-miterlimit:10;}.cls-1{stroke:#cccbcb;stroke-width:0.26px;}.cls-15,.cls-2{fill:#fff;}.cls-3{font-size:17.19px;}.cls-18,.cls-3{font-family:StagSans-Light, Stag Sans;}.cls-4{letter-spacing:-0.06em;}.cls-5{letter-spacing:-0.02em;}.cls-6{letter-spacing:0.01em;}.cls-7{letter-spacing:0em;}.cls-8{letter-spacing:-0.06em;}.cls-9{letter-spacing:-0.03em;}.cls-10{font-size:14px;font-family:Stag-Book, Stag;}.cls-11{letter-spacing:-0.03em;}.cls-12{letter-spacing:-0.01em;}.cls-13{letter-spacing:-0.02em;}.cls-14{fill:#95a1aa;}.cls-15{font-size:10px;font-family:StagSans-Book, Stag Sans;}.cls-16{letter-spacing:0.02em;}.cls-17{fill:#f47321;}.cls-18{font-size:11px;}.cls-19{letter-spacing:-0.04em;}.cls-20{letter-spacing:0em;}.cls-21{letter-spacing:-0.03em;}.cls-22{letter-spacing:-0.02em;}.cls-23{letter-spacing:0em;}.cls-24{letter-spacing:0em;}.cls-25{letter-spacing:-0.02em;}.cls-26{letter-spacing:0.02em;}.cls-27{letter-spacing:-0.02em;}.cls-28{letter-spacing:-0.02em;}.cls-29{letter-spacing:-0.05em;}.cls-30{letter-spacing:-0.04em;}.cls-31{letter-spacing:0.01em;}.cls-32{stroke:#000;}</style></defs><title>caneacademy</title><line class="cls-1" x1="141.03" y1="105.98" x2="141.03" y2="294"/><line class="cls-1" x1="190.14" y1="105.98" x2="190.14" y2="294"/><line class="cls-1" x1="239.25" y1="105.98" x2="239.25" y2="294"/><line class="cls-1" x1="288.36" y1="105.98" x2="288.36" y2="294"/><line class="cls-1" x1="337.46" y1="105.98" x2="337.46" y2="294"/><line class="cls-1" x1="386.57" y1="105.98" x2="386.57" y2="294"/><line class="cls-1" x1="435.67" y1="105.98" x2="435.67" y2="294"/><line class="cls-1" x1="484.78" y1="105.98" x2="484.78" y2="294"/><line class="cls-1" x1="533.89" y1="105.98" x2="533.89" y2="294"/><line class="cls-1" x1="582.99" y1="105.98" x2="582.99" y2="294"/><path class="cls-2" d="M413.59,136.91v-1.09h1c.71,0,1.48-.19,1.49-.85,0-.4-.32-.94-1.46-.94-.63,0-1.48.22-1.48.87h-1.33c0-1.53,1.51-2.08,2.82-2.08s2.77.65,2.78,2.16a1.49,1.49,0,0,1-1,1.39,1.69,1.69,0,0,1,1.15,1.49c0,1.73-1.63,2.24-3,2.24s-2.88-.57-2.89-2.17h1.34c0,.73,1,1,1.56,1s1.58-.28,1.58-1c0-.42-.24-.95-1.51-.95Z"/><path class="cls-2" d="M419.87,135.09v1.06a2.09,2.09,0,0,1,1.64-.75c1.43,0,2.92.6,2.92,2.36,0,1.57-1.5,2.35-2.93,2.35s-3-.78-3-2.37V135.1c0-1.58,1.46-2.32,2.91-2.32s2.89.61,2.89,2.09H423c0-.63-.79-.94-1.54-.94s-1.61.43-1.61,1.19Zm3.24,2.67c0-.78-.71-1.19-1.6-1.19s-1.65.4-1.64,1.19.75,1.15,1.63,1.15S423.1,138.54,423.1,137.76Z"/><path class="cls-2" d="M426.89,136a1.59,1.59,0,1,1,0-3.18A1.59,1.59,0,1,1,426.89,136Zm4.93-3.05-4.66,7.1h-1.43l4.66-7.1ZM426.89,135a.66.66,0,0,0,0-1.33A.66.66,0,0,0,426.89,135Zm3.84,5a1.59,1.59,0,1,1,0-3.18A1.59,1.59,0,1,1,430.73,140.07Zm0-.92a.66.66,0,0,0,0-1.33A.66.66,0,0,0,430.73,139.15Z"/><path class="cls-2" d="M537.56,138.87h1.07v-4.73h-1.1v-1.21h2.43v5.95h1V140h-3.37Z"/><path class="cls-2" d="M547.07,134.18h-3.83v1.24h1.38c1.5,0,2.86.62,2.85,2.28s-1.35,2.38-2.78,2.38-2.88-.56-2.9-2.22h1.33c0,.78.89,1,1.55,1s1.47-.3,1.47-1.14-.79-1-1.51-1h-2.68v-3.74h5.13Z"/><path class="cls-2" d="M549.74,136a1.59,1.59,0,1,1,0-3.18A1.59,1.59,0,1,1,549.74,136Zm4.94-3.05L550,140h-1.44l4.67-7.1ZM549.74,135a.66.66,0,0,0,0-1.33A.66.66,0,0,0,549.74,135Zm3.85,5a1.59,1.59,0,1,1,0-3.18A1.59,1.59,0,1,1,553.58,140.07Zm0-.92a.66.66,0,0,0,0-1.33A.66.66,0,0,0,553.58,139.15Z"/><text class="cls-3" transform="translate(26.44 49.31)"><tspan xml:space="preserve"> INCREASE OF GRADE </tspan><tspan class="cls-4" x="165.98" y="0">A</tspan><tspan x="175.47" y="0">VER</tspan><tspan class="cls-5" x="205.69" y="0">A</tspan><tspan x="215.78" y="0">GE IN RED</tspan><tspan class="cls-6" x="291.87" y="0">E</tspan><tspan class="cls-7" x="301.51" y="0">SIGNED OPHTHALMO</tspan><tspan class="cls-8" x="463.13" y="0">L</tspan><tspan x="471.44" y="0">O</tspan><tspan class="cls-9" x="483.68" y="0">G</tspan><tspan x="494.68" y="0">Y MODULE</tspan></text><text class="cls-10" transform="translate(42.89 116.33)">2011<tspan x="0" y="26">2012</tspan><tspan x="0" y="52">2013</tspan><tspan x="0" y="78">20</tspan><tspan class="cls-11" x="16.27" y="78">1</tspan><tspan x="20.82" y="78">4</tspan><tspan x="0" y="104">2015</tspan><tspan x="0" y="130">20</tspan><tspan class="cls-12" x="16.27" y="130">1</tspan><tspan x="21.1" y="130">6</tspan><tspan x="0" y="156">20</tspan><tspan class="cls-13" x="16.27" y="156">1</tspan><tspan x="21.03" y="156">7</tspan></text><rect class="cls-14" x="91.93" y="107.57" width="173.07" height="11.09"/><rect class="cls-14" x="91.93" y="131.33" width="147.07" height="11.09"/><text class="cls-15" transform="translate(149.22 139.67)"><tspan class="cls-12">8</tspan><tspan class="cls-11" x="5.64" y="0">9</tspan><tspan class="cls-16" x="11.16" y="0">.</tspan><tspan x="13.37" y="0" xml:space="preserve">2%            </tspan></text><rect class="cls-14" x="91.93" y="157.57" width="220.07" height="11.09"/><rect class="cls-14" x="91.45" y="181.33" width="200.07" height="11.09"/><rect class="cls-17" x="91.59" y="210.33" width="253.07" height="11.09"/><rect class="cls-17" x="92.21" y="239.33" width="467.07" height="11.09"/><rect class="cls-17" x="92.16" y="266.33" width="442.07" height="11.09"/><text class="cls-18" transform="translate(131.22 93.67)"><tspan class="cls-19">8</tspan><tspan class="cls-20" x="5.6" y="0">7</tspan><tspan x="10.99" y="0" xml:space="preserve">%            8</tspan><tspan class="cls-13" x="56.77" y="0">8</tspan><tspan x="62.69" y="0" xml:space="preserve">%           </tspan><tspan class="cls-12" x="99.73" y="0">8</tspan><tspan x="105.71" y="0" xml:space="preserve">9%           90%           91%           </tspan><tspan class="cls-21" x="245.72" y="0">9</tspan><tspan x="251.61" y="0" xml:space="preserve">2%           </tspan><tspan class="cls-22" x="294.15" y="0">9</tspan><tspan class="cls-23" x="300.15" y="0" xml:space="preserve">3%            9</tspan><tspan class="cls-12" x="351.43" y="0">4</tspan><tspan x="357.26" y="0" xml:space="preserve">%           </tspan><tspan class="cls-24" x="394.29" y="0">9</tspan><tspan class="cls-22" x="400.56" y="0">5</tspan><tspan x="405.89" y="0" xml:space="preserve">%           9</tspan><tspan class="cls-25" x="449.14" y="0">6</tspan><tspan x="455.17" y="0" xml:space="preserve">%  </tspan></text><text class="cls-15" transform="translate(167.22 116.67)"><tspan class="cls-12">8</tspan><tspan class="cls-11" x="5.64" y="0">9</tspan><tspan class="cls-26" x="11.16" y="0">.</tspan><tspan class="cls-27" x="13.28" y="0">5</tspan><tspan x="18.26" y="0" xml:space="preserve">%            </tspan></text><text class="cls-15" transform="translate(163.7 189.67)">9<tspan class="cls-28" x="5.82" y="0">0</tspan><tspan class="cls-29" x="12.06" y="0">.</tspan><tspan x="13.53" y="0">1</tspan><tspan class="cls-27" x="16.98" y="0">5</tspan><tspan x="21.97" y="0" xml:space="preserve">%            </tspan></text><text class="cls-15" transform="translate(193.22 166.67)">9<tspan class="cls-28" x="5.82" y="0">0</tspan><tspan class="cls-26" x="12.06" y="0">.</tspan><tspan class="cls-13" x="14.17" y="0">3</tspan><tspan class="cls-24" x="19.09" y="0">7</tspan><tspan x="24.23" y="0" xml:space="preserve">%            </tspan></text><text class="cls-15" transform="translate(191.56 218.67)">91<tspan class="cls-30" x="9.27" y="0">.</tspan><tspan class="cls-31" x="10.89" y="0">7</tspan><tspan x="16.07" y="0" xml:space="preserve">1%            </tspan></text><text class="cls-15" transform="translate(299.94 247.67)">9<tspan class="cls-12" x="5.82" y="0">5</tspan><tspan class="cls-26" x="10.9" y="0">.</tspan><tspan class="cls-27" x="13.02" y="0">5</tspan><tspan x="18.01" y="0" xml:space="preserve">%            </tspan></text><text class="cls-15" transform="translate(290.99 275.67)">9<tspan class="cls-27" x="5.82" y="0">5</tspan><tspan x="10.8" y="0" xml:space="preserve">%            </tspan></text><circle class="cls-14" cx="97.55" cy="334.29" r="5.71"/><text class="cls-18" transform="translate(111.22 338.67)">TRADITIONAL</text><circle class="cls-17" cx="224.55" cy="334.29" r="5.71"/><text class="cls-18" transform="translate(238.22 338.67)"><tspan class="cls-28">‘</tspan><tspan class="cls-24" x="1.33" y="0">C</tspan><tspan x="8.16" y="0">ANE </tspan><tspan class="cls-28" x="31.05" y="0">A</tspan><tspan class="cls-24" x="37.51" y="0">C</tspan><tspan x="44.33" y="0">ADEMY</tspan></text><line class="cls-32" x1="91.93" y1="105.98" x2="91.93" y2="291"/></svg>