<svg id="Layer_1" data-name="Layer 1" xmlns="http://www.w3.org/2000/svg" xmlns:xlink="http://www.w3.org/1999/xlink" viewBox="0 0 437.1 77.1"><defs><style>.cls-1,.cls-6{fill:none;}.cls-2{clip-path:url(#clip-path);}.cls-3{fill:#fff;}.cls-4{fill:#075330;}.cls-5{fill:#f47523;}.cls-6{stroke:#095430;stroke-width:2px;}</style><clipPath id="clip-path" transform="translate(0 -1.9)"><rect class="cls-1" y="2" width="437" height="77"/></clipPath></defs><title>logo_it_at_437x77color</title><g class="cls-2"><path class="cls-3" d="M65.2,2.5l.1,28.3c0,1.8,0,7.3-14.1,7.3H48.6c-14.1,0-14.1-5.5-14.1-7.3l.1-28.3H15V35c0,9,25.6,9.7,33.5,9.7h2.7c7.8,0,33.4-.7,33.4-9.7V2.5Z" transform="translate(0 -1.9)"/></g><g class="cls-2"><path class="cls-4" d="M66.7,30.8V3.9H83.2V35.1c0,5.9-16.4,8.3-32,8.3V39.7c7.7-.1,15.5-1.7,15.5-8.9" transform="translate(0 -1.9)"/></g><g class="cls-2"><path class="cls-5" d="M33,30.8V3.9H16.5V35.1c0,5.9,16.4,8.3,32,8.3V39.7C40.7,39.6,33,38,33,30.8" transform="translate(0 -1.9)"/></g><g class="cls-2"><line class="cls-6" y1="50.7" x2="100.1" y2="50.7"/></g><g class="cls-2"><path class="cls-5" d="M17.6,74.8c0,2,.5,2.7,2.6,2.8v.9H13.9v-.9c2.2,0,2.6-.7,2.6-2.8V65c0-.8-.3-1-1.2-1H14V63h5.5l4.2,11.9L27.8,63h5.3v1H32c-.9,0-1.1.2-1.1,1V76.4c0,.8.3,1,1.1,1h1.2v1H26.1v-1h1.3c.9,0,1.2-.2,1.2-1V64.3L23.7,78.5h-.9L17.6,64.3Z" transform="translate(0 -1.9)"/></g><g class="cls-2"><path class="cls-5" d="M34.8,77.5H36c.9,0,1.2-.2,1.2-1V65c0-.8-.3-1-1.2-1H34.8V63h7.1v1H40.7c-.9,0-1.2.2-1.2,1V76.4c0,.8.3,1,1.2,1h1.2v1H34.8Z" transform="translate(0 -1.9)"/></g><g class="cls-2"><path class="cls-5" d="M49.1,66.1l-2.5,6.2h5.1Zm1-3.4,5.6,13.7c.4.8.6,1.1,1.5,1.1h.4v1H51.1v-1h.8c.9,0,1.3-.1,1.3-.6a4.5,4.5,0,0,0-.2-.8l-1-2.7H46.1l-.7,1.7a3.92,3.92,0,0,0-.3,1.3c0,.7.5,1.1,1.6,1.1h.5v1H41.6v-1h.2c1.3,0,1.7-.5,2.2-1.8l5.1-13Z" transform="translate(0 -1.9)"/></g><g class="cls-2"><path class="cls-5" d="M61,74.8c0,2,.5,2.7,2.6,2.8v.9H57.3v-1c2.2,0,2.6-.7,2.6-2.7V65c0-.8-.3-1-1.2-1H57.4V63h5.5l4.2,11.9L71.2,63h5.3v1H75.3c-.9,0-1.1.2-1.1,1V76.4c0,.8.3,1,1.1,1h1.2v1H69.4v-1h1.3c.9,0,1.2-.2,1.2-1V64.3L67,78.5h-.9L61,64.3Z" transform="translate(0 -1.9)"/></g><g class="cls-2"><path class="cls-5" d="M78.2,77.5h1.2c.9,0,1.2-.2,1.2-1V65c0-.8-.3-1-1.2-1H78.2V63h7.1v1H84.1c-.9,0-1.2.2-1.2,1V76.4c0,.8.3,1,1.2,1h1.2v1H78.2Z" transform="translate(0 -1.9)"/></g><g class="cls-2"><path class="cls-5" d="M387.2,54.9a7.1,7.1,0,0,0-2.9-.5,6.85,6.85,0,0,0-7.1,7.1,5.69,5.69,0,0,0,2,4.6,14.26,14.26,0,0,0,5.4,2.1,30.75,30.75,0,0,1,4.8,1.4,5.37,5.37,0,0,1,1.8,1.4,3.38,3.38,0,0,1,.6,2,4.63,4.63,0,0,1-1.5,3.4,5.64,5.64,0,0,1-3.9,1.4,7.42,7.42,0,0,1-5.3-2.2,9.86,9.86,0,0,1-3-5.9h-1.2v9.1h1.2l1.8-2.2a9.43,9.43,0,0,0,6.4,2.4,7.62,7.62,0,0,0,5.6-2.1,7.16,7.16,0,0,0,2.2-5.3,6.21,6.21,0,0,0-.8-3.1,5.74,5.74,0,0,0-2.4-2.2,19.73,19.73,0,0,0-5.6-1.7,22.75,22.75,0,0,1-3.9-1.1,3.42,3.42,0,0,1-1.5-1.4,4.17,4.17,0,0,1,.9-5.1,5.2,5.2,0,0,1,3.5-1.3,6.44,6.44,0,0,1,4.5,1.8,11.7,11.7,0,0,1,3,5.8h1.1l-.1-8.6h-1.2l-1.5,2a16.5,16.5,0,0,0-2.9-1.8M354,56.1h2a1.8,1.8,0,0,1,1.1.3,1.22,1.22,0,0,1,.3.9V75.9a1,1,0,0,1-.4.9,2.27,2.27,0,0,1-1.3.3H354v1.2h19.7l.4-8.8h-1.2c-.6,5-2.9,7.6-6.9,7.6h-3.7a2.13,2.13,0,0,1-1.2-.3,1,1,0,0,1-.3-.8V66.7h1.9a3.49,3.49,0,0,1,2.8,1.2,5.86,5.86,0,0,1,1.1,3.9h1.1V61h-1.1a5.92,5.92,0,0,1-1.1,3.6,3.42,3.42,0,0,1-2.7,1.2h-2V57.4a1.06,1.06,0,0,1,1.2-1.2h4.7a4.61,4.61,0,0,1,3.6,1.5,10.21,10.21,0,0,1,2,5.2h1.1l-.5-7.9H354Zm-13.4,0h1.9a2.5,2.5,0,0,1,1.7.4,1.88,1.88,0,0,1,.3,1.3V75.6a2.21,2.21,0,0,1-.3,1.4,2.21,2.21,0,0,1-1.4.3h-2.1v1.2h11V77.3h-2.1a1.81,1.81,0,0,1-1.4-.4,1.88,1.88,0,0,1-.3-1.3V57.7a1.88,1.88,0,0,1,.3-1.3,2.75,2.75,0,0,1,1.6-.3h1.9V54.9h-11v1.2Zm-10.5-1.2a9.29,9.29,0,0,0-2.9-.5,9.88,9.88,0,0,0-5.3,1.6,12.37,12.37,0,0,0-4.1,4.4,14,14,0,0,0,0,12.6,10.62,10.62,0,0,0,4.1,4.3,10.93,10.93,0,0,0,5.6,1.5,7,7,0,0,0,3.8-1,8.92,8.92,0,0,0,2.9-2.9c.4,1.3.8,2.6,1.2,4h1.1v-9a1,1,0,0,1,.4-.9,2.27,2.27,0,0,1,1.3-.3h1.4V67.6h-10v1.1h2a2.06,2.06,0,0,1,1.3.3.91.91,0,0,1,.4.8V72a5.51,5.51,0,0,1-1.5,4,6.06,6.06,0,0,1-4.4,1.6,6.15,6.15,0,0,1-3.6-1.1,7.43,7.43,0,0,1-2.4-3.4,18.14,18.14,0,0,1-.9-6.4,18.37,18.37,0,0,1,.9-6.5,7.71,7.71,0,0,1,2.5-3.5,6.07,6.07,0,0,1,3.7-1.2,6.47,6.47,0,0,1,4.8,2.3,16.94,16.94,0,0,1,2.9,5.9h1l-.6-9.4h-1.1l-1.3,2.3a35,35,0,0,0-3.2-1.7m-23.6,1.9a7.21,7.21,0,0,1,2.5,3.5,19.39,19.39,0,0,1,.9,6.6,18.29,18.29,0,0,1-.9,6.3,7.21,7.21,0,0,1-2.5,3.5,6.38,6.38,0,0,1-3.6,1.1,6,6,0,0,1-4.9-2.4c-1.3-1.6-2-4.5-2-8.7,0-3.9.6-6.7,2-8.4a6.17,6.17,0,0,1,5.1-2.6,5.12,5.12,0,0,1,3.4,1.1m-9.2-.8a10.64,10.64,0,0,0-4,4.4,13,13,0,0,0-1.5,6.3,13.72,13.72,0,0,0,1.5,6.4,11.42,11.42,0,0,0,4,4.4,10.48,10.48,0,0,0,5.4,1.5,10.37,10.37,0,0,0,5.6-1.6,11.6,11.6,0,0,0,4.1-4.4,14,14,0,0,0,0-12.6,11.6,11.6,0,0,0-4.1-4.4,11.39,11.39,0,0,0-5.7-1.6,9.64,9.64,0,0,0-5.3,1.6m-27.3.1h2.4a1.49,1.49,0,0,1,1,.3,1.22,1.22,0,0,1,.3.9V75.7c0,.6-.1,1-.4,1.2a2.33,2.33,0,0,1-1.4.4h-2v1.2h19.9l.5-9h-1.1c-.5,2.9-1.3,4.9-2.5,6.1a5.73,5.73,0,0,1-4.4,1.8H279a2.37,2.37,0,0,1-1.5-.3,1,1,0,0,1-.4-.9V57.5a1.33,1.33,0,0,1,.3-1,1.22,1.22,0,0,1,.9-.3h2.6V55H270Zm-9.2.7a7.21,7.21,0,0,1,2.5,3.5,19.39,19.39,0,0,1,.9,6.6,18.29,18.29,0,0,1-.9,6.3,7.21,7.21,0,0,1-2.5,3.5,6.38,6.38,0,0,1-3.6,1.1,6,6,0,0,1-4.9-2.4c-1.3-1.6-2-4.5-2-8.7,0-3.9.7-6.7,2-8.4a6.17,6.17,0,0,1,5.1-2.6,5.12,5.12,0,0,1,3.4,1.1m-9.2-.8a10.64,10.64,0,0,0-4,4.4,13,13,0,0,0-1.5,6.3,13.72,13.72,0,0,0,1.5,6.4,11.42,11.42,0,0,0,4,4.4A10.48,10.48,0,0,0,257,79a10.37,10.37,0,0,0,5.6-1.6,11.6,11.6,0,0,0,4.1-4.4,14,14,0,0,0,0-12.6,11.6,11.6,0,0,0-4.1-4.4,11.39,11.39,0,0,0-5.7-1.6,9.64,9.64,0,0,0-5.3,1.6m-31.9.1h1.1a3.73,3.73,0,0,1,1.2.2,4.07,4.07,0,0,1,1.1,1l.3.3V73.5a3.17,3.17,0,0,1-1,2.5,3.69,3.69,0,0,1-2.7,1.1v1.2h9.1V77.1a3.75,3.75,0,0,1-3-1,3.66,3.66,0,0,1-1-2.9v-14l14.9,19.2h1.5V59.7a4.55,4.55,0,0,1,.5-2,3.61,3.61,0,0,1,1.1-1.3,4.49,4.49,0,0,1,1.9-.4V54.8h-8.4V56a3.18,3.18,0,0,1,2.5.9,4.14,4.14,0,0,1,.9,3V73.3L225.3,54.8h-5.7v1.3Zm-26.3,0h1.7a1.88,1.88,0,0,1,1.3.3,2.94,2.94,0,0,1,.3,1.7v17a4.55,4.55,0,0,1-.1,1.4c-.1.3-.2.5-.5.6a2.35,2.35,0,0,1-.8.2h-2v1.2h10.2V77.3h-1.9a1.81,1.81,0,0,1-1.4-.5,4,4,0,0,1-.2-1.5V67h11v8.2a4.23,4.23,0,0,1-.2,1.6c-.2.4-.7.6-1.4.6h-1.7v1.2h10.1V77.4h-1.6a1.91,1.91,0,0,1-1.5-.5,4,4,0,0,1-.2-1.5V58.3a4.18,4.18,0,0,1,.1-1.4,1,1,0,0,1,.5-.6,2.15,2.15,0,0,1,1-.2H218V54.9H207.9v1.2h1.7a1.88,1.88,0,0,1,1.3.3,2.94,2.94,0,0,1,.3,1.7v7.2H200.3V58.1a3.17,3.17,0,0,1,.3-1.7,1.88,1.88,0,0,1,1.3-.3h1.9V54.9H193.6v1.2Zm-8.5-1.2a7.89,7.89,0,0,0-3-.5,9.8,9.8,0,0,0-5.2,1.5,11.16,11.16,0,0,0-3.9,4.6,15.17,15.17,0,0,0-1.5,6.6,12.81,12.81,0,0,0,1.5,6.1,10.15,10.15,0,0,0,4,4.2,10.58,10.58,0,0,0,5.5,1.5,8.54,8.54,0,0,0,6.1-2.3,10.11,10.11,0,0,0,2.9-6.5h-1.1a9.19,9.19,0,0,1-2.6,5.5,6.89,6.89,0,0,1-4.9,1.8,6.32,6.32,0,0,1-5.2-2.4c-1.4-1.9-2.2-4.5-2.2-8.1,0-4.2.6-7.2,1.9-8.9a5.7,5.7,0,0,1,4.9-2.6,6.25,6.25,0,0,1,4.8,2.4,14.77,14.77,0,0,1,2.7,5.9h1.1l-.4-9.5h-1l-1.1,2.3c-1.3-.6-2.3-1.2-3.3-1.6m-36.6,1.2h2a1.8,1.8,0,0,1,1.1.3c.3.2.3.5.3.9V75.9a1,1,0,0,1-.4.9,2.27,2.27,0,0,1-1.3.3h-1.6v1.2h19.7l.4-8.8h-1.2c-.6,5-2.9,7.6-6.9,7.6h-3.7a2.13,2.13,0,0,1-1.2-.3,1,1,0,0,1-.3-.8V66.7h1.9a3.49,3.49,0,0,1,2.8,1.2,5.86,5.86,0,0,1,1.1,3.9h1.1V61H161a5.92,5.92,0,0,1-1.1,3.6,3.42,3.42,0,0,1-2.7,1.2h-2V57.4a1.06,1.06,0,0,1,1.2-1.2h4.7a4.61,4.61,0,0,1,3.6,1.5,10.21,10.21,0,0,1,2,5.2h1.1l-.5-7.9H148.4v1.1ZM126,63.8h1.2a13,13,0,0,1,1.9-5.7,4.47,4.47,0,0,1,3.9-2.2,2.13,2.13,0,0,1,1.2.3,1.27,1.27,0,0,1,.4.9V76.2a.91.91,0,0,1-.3.7,1.14,1.14,0,0,1-.8.3h-2.7v1.2h11.1V77.2h-2.4a1.61,1.61,0,0,1-1.1-.3,1.14,1.14,0,0,1-.3-.8V57.3a1.33,1.33,0,0,1,.3-1,2.06,2.06,0,0,1,1.3-.3c3.1,0,5,2.6,5.8,7.8h1.1l-.5-8.9H126.7Z" transform="translate(0 -1.9)"/></g><g class="cls-2"><path class="cls-5" d="M299.8,25.4a10.47,10.47,0,0,0-3-.5,9.09,9.09,0,0,0-5.2,1.6,11.16,11.16,0,0,0-3.9,4.6,15.17,15.17,0,0,0-1.5,6.6,12.81,12.81,0,0,0,1.5,6.1,11.07,11.07,0,0,0,4,4.3,10.58,10.58,0,0,0,5.5,1.5,8.54,8.54,0,0,0,6.1-2.3,10.11,10.11,0,0,0,2.9-6.5h-1.1a9.19,9.19,0,0,1-2.6,5.5,6.89,6.89,0,0,1-4.9,1.8,6.32,6.32,0,0,1-5.2-2.4c-1.4-1.9-2.2-4.5-2.2-8.1,0-4.2.6-7.2,1.9-8.9a5.7,5.7,0,0,1,4.9-2.6,6.25,6.25,0,0,1,4.8,2.4,14.77,14.77,0,0,1,2.7,5.9h1.1l-.4-9.5h-1l-1.1,2.3a13.89,13.89,0,0,0-3.3-1.8m-27.2,1.1h1.9a2.5,2.5,0,0,1,1.7.4,1.88,1.88,0,0,1,.3,1.3V46a2.21,2.21,0,0,1-.3,1.4,2.21,2.21,0,0,1-1.4.3h-2.1v1.2h11V47.7h-2.1a1.81,1.81,0,0,1-1.4-.4,1.88,1.88,0,0,1-.3-1.3V28.1a1.88,1.88,0,0,1,.3-1.3,2.75,2.75,0,0,1,1.6-.3h1.9V25.3h-11v1.2Zm-30.9,0h2a2.42,2.42,0,0,1,1.4.3,1.27,1.27,0,0,1,.4.9V43.9a4.07,4.07,0,0,1-.8,2.8,4.81,4.81,0,0,1-3,.9v1.2h9V47.6a6.18,6.18,0,0,1-2.4-.5,3.18,3.18,0,0,1-1.1-1.2,4.74,4.74,0,0,1-.4-2.3v-17l8.5,22.2h1.1l7.9-22.3v20a.91.91,0,0,1-.4.8,2.27,2.27,0,0,1-1.3.3h-2v1.2h10.9V47.6h-1.8a2.81,2.81,0,0,1-1.5-.3,1,1,0,0,1-.4-.9V27.9a1.05,1.05,0,0,1,.4-1,2.42,2.42,0,0,1,1.4-.3h2V25.4h-8.1L256.9,44l-7.1-18.6h-7.9v1.1Zm-21.2,0h2a1.8,1.8,0,0,1,1.1.3,1.22,1.22,0,0,1,.3.9V46.3a1,1,0,0,1-.4.9,2.27,2.27,0,0,1-1.3.3h-1.6v1.2h19.7l.4-8.8h-1.2c-.6,5-2.9,7.6-6.9,7.6h-3.7a2.13,2.13,0,0,1-1.2-.3c-.3-.2-.3-.4-.3-.8V37.1h1.9a3.49,3.49,0,0,1,2.8,1.2,5.86,5.86,0,0,1,1.1,3.9h1.1V31.4h-1.1a5.92,5.92,0,0,1-1.1,3.6,3.42,3.42,0,0,1-2.7,1.2h-2V27.8a1.06,1.06,0,0,1,1.2-1.2h4.7a4.61,4.61,0,0,1,3.6,1.5,10.21,10.21,0,0,1,2,5.2H240l-.5-7.9H220.6v1.1Zm-14.4,0a6.53,6.53,0,0,1,5.4,2.3c1.4,1.8,2.1,4.7,2.1,8.6a15.14,15.14,0,0,1-1,6.2,5.88,5.88,0,0,1-2,2.6,8.72,8.72,0,0,1-4.8,1.4h-2a2.65,2.65,0,0,1-1.4-.3,1,1,0,0,1-.4-.9V27.7a1.22,1.22,0,0,1,.3-.9,1.61,1.61,0,0,1,1.1-.3Zm-11.3,0h2.4a1.69,1.69,0,0,1,1,.3,1.23,1.23,0,0,1,.4.8V46.5c0,.4-.1.7-.3.8a1.74,1.74,0,0,1-1.2.3h-2.3v1.2h11a17.47,17.47,0,0,0,4.5-.5,9.53,9.53,0,0,0,3.8-2.2,9.76,9.76,0,0,0,2.3-3.4,14.84,14.84,0,0,0,1-5.7,13.07,13.07,0,0,0-1.7-6.7,9.81,9.81,0,0,0-4.1-4,10.89,10.89,0,0,0-4.7-1H194.6v1.2ZM186,39.8h-8.4l4.3-10.5Zm-11.8,5a5.37,5.37,0,0,1-1.5,2.3,3.59,3.59,0,0,1-2.2.6v1.2h8.6V47.7h-.8a3.28,3.28,0,0,1-2.1-.6,1.57,1.57,0,0,1-.7-1.3,5.35,5.35,0,0,1,.4-1.8l1.1-2.9h9.4l2,5a1.27,1.27,0,0,1,.1.6.75.75,0,0,1-.4.7,5.15,5.15,0,0,1-2.1.3h-.8v1.2h9.5V47.7H194a1.93,1.93,0,0,1-2.1-1.3l-8.6-21.5h-1.1ZM163.9,25.4a10.47,10.47,0,0,0-3-.5,9.09,9.09,0,0,0-5.2,1.6,11.16,11.16,0,0,0-3.9,4.6,15.17,15.17,0,0,0-1.5,6.6,12.81,12.81,0,0,0,1.5,6.1,11.07,11.07,0,0,0,4,4.3,10.58,10.58,0,0,0,5.5,1.5,8.54,8.54,0,0,0,6.1-2.3,10.11,10.11,0,0,0,2.9-6.5H169a9.19,9.19,0,0,1-2.6,5.5,6.89,6.89,0,0,1-4.9,1.8,6.32,6.32,0,0,1-5.2-2.4c-1.4-1.9-2.2-4.5-2.2-8.1,0-4.2.6-7.2,1.9-8.9a5.7,5.7,0,0,1,4.9-2.6,6.25,6.25,0,0,1,4.8,2.4,14.77,14.77,0,0,1,2.7,5.9h1.1l-.4-9.5h-1L167,27.2a9.17,9.17,0,0,0-3.1-1.8M140.3,39.8h-8.4l4.3-10.5Zm-11.8,5a5.37,5.37,0,0,1-1.5,2.3,3.59,3.59,0,0,1-2.2.6v1.2h8.6V47.7h-.8a3.28,3.28,0,0,1-2.1-.6,1.57,1.57,0,0,1-.7-1.3,5.35,5.35,0,0,1,.4-1.8l1.1-2.9h9.4l2,5a1.27,1.27,0,0,1,.1.6.75.75,0,0,1-.4.7,5.15,5.15,0,0,1-2.1.3h-.8v1.2H149V47.7h-.7a1.93,1.93,0,0,1-2.1-1.3l-8.6-21.5h-1.1Z" transform="translate(0 -1.9)"/></g><g class="cls-2"><path class="cls-4" d="M421.9,3.1a4.64,4.64,0,0,1,1.4.2,1.2,1.2,0,0,1,.7.7l4.7,7.2v4.6a1.42,1.42,0,0,1-.2.6,1.55,1.55,0,0,1-.8.2h-1.4v.8h7v-.8H432a2,2,0,0,1-.9-.2.76.76,0,0,1-.2-.5V11l3.5-6.3a3.72,3.72,0,0,1,1.1-1.3,3.51,3.51,0,0,1,1.6-.3V2.3h-5.8v.8h.7a1.49,1.49,0,0,1,1,.3,1.14,1.14,0,0,1,.3.8,1.45,1.45,0,0,1-.2.7l-2.8,5L426.4,4a.75.75,0,0,1-.1-.5c0-.2.1-.3.3-.4a3.45,3.45,0,0,1,1.2-.1h.7V2.3h-6.6v.8Zm-5.8-.8a5.66,5.66,0,0,0-1.8-.3,6.6,6.6,0,0,0-3.4,1,7,7,0,0,0-2.6,2.8,8.77,8.77,0,0,0-1,4,7.67,7.67,0,0,0,1,4,6.18,6.18,0,0,0,2.6,2.7,7.49,7.49,0,0,0,3.6,1,4.55,4.55,0,0,0,4.2-2.5c.3.8.5,1.7.8,2.6h.7V11.9a1.42,1.42,0,0,1,.2-.6,1.55,1.55,0,0,1,.8-.2h.9v-.7h-6.4v.7H417a2,2,0,0,1,.9.2.55.55,0,0,1,.3.5v1.4a3.54,3.54,0,0,1-1,2.6,4.29,4.29,0,0,1-5.1.3,4,4,0,0,1-1.5-2.2,11.09,11.09,0,0,1-.6-4.1,11.68,11.68,0,0,1,.6-4.2,4.68,4.68,0,0,1,1.6-2.2,4,4,0,0,1,2.4-.7,4.18,4.18,0,0,1,3.1,1.5,9.78,9.78,0,0,1,1.8,3.7h.7l-.4-6h-.7l-.8,1.5a14.83,14.83,0,0,0-2.2-1.1m-15,1.2a4.68,4.68,0,0,1,1.6,2.2,11.68,11.68,0,0,1,.6,4.2,11.24,11.24,0,0,1-.6,4,4.23,4.23,0,0,1-1.6,2.2,3.69,3.69,0,0,1-2.3.7,3.75,3.75,0,0,1-3.1-1.5c-.8-1-1.3-2.9-1.3-5.6,0-2.5.4-4.2,1.2-5.3a3.76,3.76,0,0,1,3.2-1.6,3.89,3.89,0,0,1,2.3.7M395.2,3a7.8,7.8,0,0,0-2.6,2.8,8.72,8.72,0,0,0-.9,4,8.3,8.3,0,0,0,1,4.1,6.43,6.43,0,0,0,2.6,2.8,6.11,6.11,0,0,0,3.4,1,6.43,6.43,0,0,0,3.5-1,7,7,0,0,0,2.6-2.8,8.9,8.9,0,0,0,.1-8,7,7,0,0,0-2.6-2.8,6.53,6.53,0,0,0-3.6-1,5.43,5.43,0,0,0-3.5.9m-17.4.1h1.5a.85.85,0,0,1,.6.2.85.85,0,0,1,.2.6V15.6a1,1,0,0,1-.3.8c-.2.2-.5.2-.9.2h-1.2v.8h12.6l.3-5.8h-.7a7.9,7.9,0,0,1-1.6,3.9,3.76,3.76,0,0,1-2.8,1.1h-2.1a2.15,2.15,0,0,1-1-.2c-.2-.1-.2-.3-.2-.6V3.9a1.45,1.45,0,0,1,.2-.7A.85.85,0,0,1,383,3h1.7V2.3h-7v.8Zm-5.8.4a4.68,4.68,0,0,1,1.6,2.2,11.68,11.68,0,0,1,.6,4.2,11.24,11.24,0,0,1-.6,4,4.23,4.23,0,0,1-1.6,2.2,3.69,3.69,0,0,1-2.3.7,4.07,4.07,0,0,1-3.2-1.5c-.8-1-1.3-2.9-1.3-5.6,0-2.5.4-4.2,1.2-5.3a3.76,3.76,0,0,1,3.2-1.6,4,4,0,0,1,2.4.7M366.1,3a7.8,7.8,0,0,0-2.6,2.8,8.72,8.72,0,0,0-.9,4,8.3,8.3,0,0,0,1,4.1,6.43,6.43,0,0,0,2.6,2.8,6.11,6.11,0,0,0,3.4,1,6.43,6.43,0,0,0,3.5-1,7,7,0,0,0,2.6-2.8,8.9,8.9,0,0,0,.1-8,7,7,0,0,0-2.6-2.8,6.53,6.53,0,0,0-3.6-1,5.43,5.43,0,0,0-3.5.9m-20.3.1h.7a2,2,0,0,1,.8.1,4.3,4.3,0,0,1,.7.7l.2.2V14.2a2.27,2.27,0,0,1-.6,1.6,2.41,2.41,0,0,1-1.7.7v.8h5.8v-.8a2.55,2.55,0,0,1-1.9-.6,2.44,2.44,0,0,1-.6-1.8V5l9.5,12.2h1V5.4a2.77,2.77,0,0,1,.3-1.3c.2-.4.4-.7.7-.8a3.73,3.73,0,0,1,1.2-.2V2.3h-5.3v.8a2,2,0,0,1,1.6.6,2.55,2.55,0,0,1,.6,1.9v8.5L349.6,2.3H346v.8Zm-16.7,0h1.1a1.29,1.29,0,0,1,.8.2,2,2,0,0,1,.2,1.1V15.2c0,.5,0,.8-.1.9a1.38,1.38,0,0,1-.3.4.75.75,0,0,1-.5.1h-1.2v.8h6.5v-.8h-1.2a1.22,1.22,0,0,1-.9-.3c-.1-.1-.1-.4-.1-.9V9.9h6.9v5.2a2.24,2.24,0,0,1-.1,1,1.27,1.27,0,0,1-.9.4h-1.1v.8h6.4v-.8h-1a1.33,1.33,0,0,1-1-.3c-.1-.1-.1-.4-.1-.9V4.5c0-.5,0-.8.1-.9a1.38,1.38,0,0,1,.3-.4c.1-.1.3-.1.6-.1h1.2V2.3h-6.4v.8h1.1a1.29,1.29,0,0,1,.8.2,2,2,0,0,1,.2,1.1V9h-6.9V4.3a2.33,2.33,0,0,1,.2-1.1,1.29,1.29,0,0,1,.8-.2h1.2V2.3h-6.5v.8Zm-5.4-.8a6.28,6.28,0,0,0-1.9-.3,5.58,5.58,0,0,0-3.3,1A7.15,7.15,0,0,0,316,5.9a8.68,8.68,0,0,0-1,4.2,8.6,8.6,0,0,0,.9,3.9,6.56,6.56,0,0,0,2.5,2.7,7,7,0,0,0,3.5.9,5.64,5.64,0,0,0,3.9-1.4,7.15,7.15,0,0,0,1.9-4.1H327a6.36,6.36,0,0,1-1.6,3.5,4.3,4.3,0,0,1-3.1,1.2,4,4,0,0,1-3.3-1.5,8.36,8.36,0,0,1-1.4-5.1q0-4,1.2-5.7a3.71,3.71,0,0,1,6.1-.2A8.51,8.51,0,0,1,326.6,8h.7L327,2h-.6l-.7,1.4a13.65,13.65,0,0,0-2-1.1m-23.3.8h1.2a1.45,1.45,0,0,1,.7.2.85.85,0,0,1,.2.6V15.8a.85.85,0,0,1-.2.6,1.44,1.44,0,0,1-.9.2h-1v.8h12.5l.3-5.6h-.7c-.4,3.2-1.9,4.8-4.4,4.8h-2.3a1.17,1.17,0,0,1-.7-.2.76.76,0,0,1-.2-.5v-6h1.2a2.14,2.14,0,0,1,1.8.7,3.92,3.92,0,0,1,.7,2.5h.7V6.2h-.7a3.7,3.7,0,0,1-.7,2.3,2.06,2.06,0,0,1-1.7.7h-1.3V3.9a.85.85,0,0,1,.2-.6.76.76,0,0,1,.5-.2h3a2.9,2.9,0,0,1,2.3,1,6.43,6.43,0,0,1,1.3,3.3h.7l-.3-5h-12v.7ZM286.2,8h.7a7.59,7.59,0,0,1,1.2-3.6A3.11,3.11,0,0,1,290.6,3a1.88,1.88,0,0,1,.8.2c.2.1.2.3.2.6V15.9c0,.2-.1.3-.2.5a.76.76,0,0,1-.5.2h-1.7v.8h7v-.8h-1.5a1.17,1.17,0,0,1-.7-.2.76.76,0,0,1-.2-.5V3.9a1.45,1.45,0,0,1,.2-.7,1.29,1.29,0,0,1,.8-.2c2,0,3.2,1.7,3.7,5h.7l-.3-5.7H286.6ZM264.8,3.1h.7a2,2,0,0,1,.8.1,4.3,4.3,0,0,1,.7.7l.2.2V14.2a2.27,2.27,0,0,1-.6,1.6,2.41,2.41,0,0,1-1.7.7v.8h5.8v-.8a2.55,2.55,0,0,1-1.9-.6,2.44,2.44,0,0,1-.6-1.8V5l9.5,12.2h1V5.4a2.77,2.77,0,0,1,.3-1.3c.2-.4.4-.7.7-.8a3.73,3.73,0,0,1,1.2-.2V2.3h-5.3v.8a2,2,0,0,1,1.6.6,2.55,2.55,0,0,1,.6,1.9v8.5L268.6,2.3H265v.8Zm-6.1.4a4.68,4.68,0,0,1,1.6,2.2,11.68,11.68,0,0,1,.6,4.2,11.24,11.24,0,0,1-.6,4,4.23,4.23,0,0,1-1.6,2.2,3.69,3.69,0,0,1-2.3.7,3.75,3.75,0,0,1-3.1-1.5c-.8-1-1.3-2.9-1.3-5.6,0-2.5.4-4.2,1.2-5.3a3.76,3.76,0,0,1,3.2-1.6,3.69,3.69,0,0,1,2.3.7M252.9,3a7.8,7.8,0,0,0-2.6,2.8,8.72,8.72,0,0,0-.9,4,8.3,8.3,0,0,0,1,4.1,6.43,6.43,0,0,0,2.6,2.8,6.11,6.11,0,0,0,3.4,1,6.43,6.43,0,0,0,3.5-1,7,7,0,0,0,2.6-2.8,8.9,8.9,0,0,0,.1-8A7,7,0,0,0,260,3.1a6.53,6.53,0,0,0-3.6-1,5.28,5.28,0,0,0-3.5.9m-11.8.1h1.2a2.68,2.68,0,0,1,1.1.2,1.29,1.29,0,0,1,.2.8V15.4a1.69,1.69,0,0,1-.2.9,1.44,1.44,0,0,1-.9.2h-1.3v.8h7v-.8h-1.3a2,2,0,0,1-.9-.2,1.29,1.29,0,0,1-.2-.8V4.1a1.29,1.29,0,0,1,.2-.8,1.85,1.85,0,0,1,1-.2h1.2V2.3h-7v.8ZM227.5,8h.7a7.59,7.59,0,0,1,1.2-3.6A3.11,3.11,0,0,1,231.9,3a1.88,1.88,0,0,1,.8.2c.2.1.2.3.2.6V15.9c0,.2-.1.3-.2.5a.76.76,0,0,1-.5.2h-1.7v.8h7v-.8H236a1.17,1.17,0,0,1-.7-.2.76.76,0,0,1-.2-.5V3.9a1.45,1.45,0,0,1,.2-.7,1.29,1.29,0,0,1,.8-.2c2,0,3.2,1.7,3.7,5h.7l-.3-5.7H227.9ZM222,11.5h-5.4l2.7-6.7Zm-7.5,3.2a3.35,3.35,0,0,1-.9,1.4,2.59,2.59,0,0,1-1.4.4v.8h5.5v-.8h-.5a2.12,2.12,0,0,1-1.4-.4,1,1,0,0,1-.5-.8,3.46,3.46,0,0,1,.3-1.2l.7-1.8h6l1.3,3.2c0,.1.1.2.1.4s-.1.3-.3.4a3.92,3.92,0,0,1-1.3.2h-.5v.8h6.1v-.8h-.5a1.25,1.25,0,0,1-1.3-.8L220.4,2h-.7Zm-21-11.6h1.3a2,2,0,0,1,.9.2c.2.1.2.3.2.6V14.2a2.57,2.57,0,0,1-.5,1.8,3.51,3.51,0,0,1-1.9.6v.8h5.7v-.8a2.81,2.81,0,0,1-1.5-.3,2.34,2.34,0,0,1-.7-.7,3,3,0,0,1-.2-1.5V3.1l5.4,14.1h.7l5-14.2V15.7a.55.55,0,0,1-.3.5,1.88,1.88,0,0,1-.8.2h-1.3v.8h6.9v-.8h-1.2a2.15,2.15,0,0,1-1-.2.55.55,0,0,1-.3-.5V3.9a1.45,1.45,0,0,1,.2-.7A2,2,0,0,1,211,3h1.3V2.3h-5.2l-4.2,11.8L198.4,2.3h-5.1v.8Zm-9.7.7a.6.6,0,0,1,.3-.6,4,4,0,0,1,1.5-.2,7.25,7.25,0,0,1,2.5.3,2.19,2.19,0,0,1,1,.9,3.58,3.58,0,0,1,.4,1.9,2.72,2.72,0,0,1-1,2.4,5.49,5.49,0,0,1-2.8.7h-1.8V3.8Zm-4.7-.7h1.5a1.17,1.17,0,0,1,.7.2c.2.1.2.3.2.6v12a.76.76,0,0,1-.2.5,1.45,1.45,0,0,1-.7.2h-1.5v.8h7v-.8h-1.5a1.88,1.88,0,0,1-.8-.2.76.76,0,0,1-.2-.5v-6h1.2a4.31,4.31,0,0,1,1.7.3,1.79,1.79,0,0,1,1,.9A5.61,5.61,0,0,1,188,13a14.31,14.31,0,0,0,.5,2.9,2.42,2.42,0,0,0,.8,1.1,2.84,2.84,0,0,0,1.3.4c1.6,0,2.4-1.1,2.6-3.4h-.7a4.46,4.46,0,0,1-.3,1.6c-.2.3-.4.5-.6.5a.72.72,0,0,1-.6-.4,5.49,5.49,0,0,1-.7-1.8,9,9,0,0,0-.8-2.5,2.84,2.84,0,0,0-.9-1,6.72,6.72,0,0,0-2-.8,8.13,8.13,0,0,0,2.9-.7,3.33,3.33,0,0,0,1.4-1.2,3.45,3.45,0,0,0,.5-1.8,3.23,3.23,0,0,0-1.3-2.7,5.4,5.4,0,0,0-3.5-1h-7.8v.9Zm-5.7.4A4.68,4.68,0,0,1,175,5.7a11.68,11.68,0,0,1,.6,4.2,11.24,11.24,0,0,1-.6,4,4.23,4.23,0,0,1-1.6,2.2,3.69,3.69,0,0,1-2.3.7,3.75,3.75,0,0,1-3.1-1.5c-.8-1-1.3-2.9-1.3-5.6,0-2.5.4-4.2,1.2-5.3a3.76,3.76,0,0,1,3.2-1.6,3.89,3.89,0,0,1,2.3.7M167.5,3a7.8,7.8,0,0,0-2.6,2.8,8.72,8.72,0,0,0-.9,4,8.3,8.3,0,0,0,1,4.1,6.43,6.43,0,0,0,2.6,2.8,6.11,6.11,0,0,0,3.4,1,6.43,6.43,0,0,0,3.5-1,7,7,0,0,0,2.6-2.8,8.9,8.9,0,0,0,.1-8,7,7,0,0,0-2.6-2.8,6.53,6.53,0,0,0-3.6-1,5.59,5.59,0,0,0-3.5.9m-16.9.1h1.5a1.17,1.17,0,0,1,.7.2.85.85,0,0,1,.2.6V15.8a.85.85,0,0,1-.2.6,1.17,1.17,0,0,1-.7.2h-1.6v.8h7.3v-.8h-1.6a2,2,0,0,1-.9-.2c-.2-.1-.2-.4-.2-.7V9.9h1.3a2.06,2.06,0,0,1,1.7.7,4.56,4.56,0,0,1,.7,2.4h.7V6.3h-.7a3.39,3.39,0,0,1-.7,2.2,2.06,2.06,0,0,1-1.7.7h-1.3V3.7a.76.76,0,0,1,.2-.5.76.76,0,0,1,.5-.2h2.4a4.1,4.1,0,0,1,2.8.9c.6.5,1,1.7,1.3,3.5h.7l-.2-5.2H150.5v.9Zm-16.7,0h.7a2,2,0,0,1,.8.1,4.3,4.3,0,0,1,.7.7l.2.2V14.2a2.27,2.27,0,0,1-.6,1.6,2.41,2.41,0,0,1-1.7.7v.8h5.8v-.8a2.55,2.55,0,0,1-1.9-.6,2.44,2.44,0,0,1-.6-1.8V5l9.5,12.2h1V5.4a2.77,2.77,0,0,1,.3-1.3c.2-.4.4-.7.7-.8a3.73,3.73,0,0,1,1.2-.2V2.3h-5.3v.8a2,2,0,0,1,1.6.6,2.55,2.55,0,0,1,.6,1.9v8.5L137.7,2.3h-3.6v.8Zm-8,0h1.2a2.68,2.68,0,0,1,1.1.2,1.29,1.29,0,0,1,.2.8V15.4a1.69,1.69,0,0,1-.2.9,1.44,1.44,0,0,1-.9.2H126v.8h7v-.8h-1.3a2,2,0,0,1-.9-.2,1.29,1.29,0,0,1-.2-.8V4.1a1.29,1.29,0,0,1,.2-.8,1.85,1.85,0,0,1,1-.2H133V2.3h-7v.8Z" transform="translate(0 -1.9)"/></g></svg>